<?xml version="1.0" standalone="no"?>
<!DOCTYPE svg PUBLIC "-//W3C//DTD SVG 20010904//EN"
 "http://www.w3.org/TR/2001/REC-SVG-20010904/DTD/svg10.dtd">
<svg version="1.0" xmlns="http://www.w3.org/2000/svg"
 width="920.000000pt" height="920.000000pt" viewBox="0 0 920.000000 920.000000"
 preserveAspectRatio="xMidYMid meet">
<metadata>
Created by potrace 1.14, written by Peter Selinger 2001-2017
</metadata>
<g transform="translate(0.000000,920.000000) scale(0.100000,-0.100000)"
fill="#000000" stroke="none">
<path d="M1638 8568 c-27 -23 -40 -44 -117 -193 -23 -44 -60 -104 -83 -135
-40 -54 -196 -210 -210 -210 -3 0 -20 -11 -36 -25 -71 -59 -302 -154 -417
-170 -27 -4 -100 -8 -161 -11 -137 -4 -174 -10 -196 -32 -13 -14 -58 -149 -73
-222 -2 -8 -12 -51 -24 -96 -11 -45 -22 -90 -24 -100 -2 -10 -9 -37 -15 -59
-11 -40 -21 -84 -27 -120 -2 -11 -4 -21 -5 -22 -3 -3 -3 -3 -15 -58 -4 -22
-10 -44 -11 -50 -2 -5 -6 -23 -9 -40 -3 -16 -8 -38 -11 -47 -3 -10 -8 -30 -10
-45 -3 -16 -10 -46 -15 -68 -5 -22 -12 -49 -14 -60 -3 -11 -8 -33 -11 -50 -2
-16 -9 -46 -14 -65 -5 -19 -25 -114 -45 -210 -20 -96 -38 -182 -40 -191 -2 -9
-6 -33 -9 -53 -3 -19 -10 -55 -15 -78 -17 -78 -25 -132 -25 -181 -1 -58 9 -68
134 -129 47 -23 93 -48 103 -56 9 -8 17 -12 17 -8 0 12 134 -91 190 -147 108
-106 166 -193 235 -350 25 -58 63 -242 70 -337 3 -47 7 -108 10 -137 4 -52 23
-100 47 -120 14 -12 98 -40 138 -47 14 -3 26 -5 28 -7 2 -2 6 -3 55 -13 38 -7
40 -5 114 64 73 70 137 109 179 110 11 0 24 3 28 7 4 4 19 9 34 11 15 1 48 9
75 17 26 8 47 12 47 10 0 -2 18 2 40 10 22 8 43 14 45 14 3 0 29 5 58 10 28 6
62 13 75 16 13 2 31 6 40 9 9 3 28 7 42 10 14 2 45 9 70 16 25 7 54 14 65 16
17 2 64 12 138 30 37 9 63 14 89 19 14 3 66 15 115 26 48 12 102 23 118 26 17
3 57 11 90 19 33 9 67 16 75 18 8 1 26 5 40 9 33 8 258 57 290 63 14 3 34 8
45 11 21 7 26 8 65 16 91 18 386 89 400 97 10 5 20 6 24 3 3 -3 6 -1 6 4 0 6
15 44 34 85 33 70 89 202 142 335 l25 62 -87 133 c-48 73 -85 133 -83 133 2 0
-6 11 -18 25 -13 13 -29 36 -35 52 -7 15 -15 28 -18 28 -3 0 -16 20 -30 45
-14 25 -28 45 -32 45 -5 0 -8 4 -8 10 0 5 -32 59 -70 120 -38 61 -70 115 -70
120 0 4 30 7 68 5 94 -5 337 -23 337 -25 0 -2 161 -12 230 -14 39 -1 76 -5 83
-10 6 -4 12 -4 12 1 0 4 25 6 55 5 52 -4 56 -2 92 36 21 22 58 65 83 97 25 31
50 62 55 68 6 7 37 46 70 87 32 41 64 82 71 90 22 25 78 94 89 109 35 48 136
143 144 135 7 -7 105 -379 115 -437 1 -6 5 -21 9 -32 3 -11 8 -31 11 -45 3
-14 17 -72 32 -130 14 -58 27 -116 28 -130 2 -20 13 -28 61 -47 33 -13 71 -28
85 -34 14 -6 26 -10 28 -10 1 1 16 -6 32 -14 16 -8 32 -15 35 -14 5 0 171 -63
270 -102 17 -7 33 -13 38 -14 4 -2 9 -4 12 -5 3 -1 8 -3 13 -5 4 -1 21 -7 37
-14 17 -7 65 -26 107 -43 43 -17 75 -35 72 -40 -6 -9 -182 -128 -190 -128 -2
0 -26 -15 -52 -32 -65 -44 -82 -55 -119 -74 -18 -9 -33 -20 -33 -25 0 -5 -5
-9 -11 -9 -11 0 -39 -24 -39 -34 0 -3 6 -3 13 -1 6 2 23 7 37 9 14 3 36 8 50
11 14 3 39 8 56 10 17 3 43 9 58 15 14 5 26 7 26 5 0 -2 10 -1 23 4 13 5 41
12 63 15 21 4 55 11 74 16 19 5 50 12 69 15 19 3 38 8 43 11 5 3 23 7 41 10
42 5 63 10 115 24 24 6 55 13 70 15 15 3 70 14 122 26 52 11 104 22 115 24 11
2 57 13 103 23 45 11 85 20 87 21 3 1 6 1 8 2 1 0 11 2 22 4 11 1 74 15 140
30 66 14 131 29 145 31 14 3 86 19 160 35 74 16 149 32 165 35 17 2 38 7 47
10 9 3 25 6 35 8 10 2 97 20 193 39 234 48 263 52 350 52 85 -1 155 -29 220
-88 36 -32 97 -114 98 -131 0 -5 4 -12 9 -15 4 -3 26 -40 47 -81 99 -193 230
-321 402 -393 54 -23 82 -31 154 -42 40 -7 60 4 60 31 0 13 4 24 8 24 4 0 8
10 9 23 0 12 13 74 28 137 15 63 29 126 31 140 3 14 7 33 10 43 3 10 7 43 9
75 7 98 -13 121 -178 206 -211 108 -372 268 -466 462 -40 82 -78 192 -87 254
-3 19 -8 38 -10 42 -3 4 -7 67 -9 140 -7 186 -13 211 -55 233 -53 27 -237 80
-319 91 -19 2 -38 7 -43 10 -4 3 -20 7 -34 10 -14 3 -54 11 -88 19 -33 8 -72
16 -86 18 -14 3 -45 10 -70 17 -25 7 -56 14 -70 16 -14 3 -92 20 -175 39 -82
19 -172 39 -200 45 -82 17 -98 21 -135 30 -19 5 -48 12 -65 15 -16 3 -41 8
-55 11 -14 3 -33 7 -42 10 -18 5 -50 13 -83 19 -11 2 -63 13 -115 25 -52 12
-124 28 -160 36 -36 8 -74 16 -85 19 -11 2 -33 7 -49 10 -15 3 -58 13 -95 21
-36 9 -77 18 -91 20 -14 3 -52 12 -85 21 -67 17 -77 19 -130 27 -20 3 -45 10
-54 16 -10 5 -20 7 -23 5 -2 -3 -20 0 -39 5 -19 6 -47 13 -64 16 -16 3 -46 9
-65 14 -19 5 -51 12 -70 15 -19 3 -51 10 -70 15 -19 5 -46 11 -60 14 -14 3
-43 10 -65 15 -22 5 -51 12 -65 15 -14 3 -56 12 -95 21 -100 23 -107 24 -135
30 -14 3 -45 10 -70 15 -25 6 -56 13 -70 16 -14 3 -43 10 -65 16 -22 5 -49 12
-60 13 -11 2 -31 6 -45 9 -52 12 -76 18 -95 21 -11 1 -38 8 -60 13 -22 6 -52
14 -67 17 -32 6 -64 13 -93 20 -30 7 -205 46 -250 56 -22 4 -49 10 -60 13 -27
7 -132 30 -240 54 -49 11 -133 30 -185 42 -52 12 -106 24 -120 26 -14 2 -52
10 -85 19 -50 12 -122 29 -225 50 -8 2 -15 4 -15 5 0 1 -7 3 -15 5 -28 5 -175
36 -190 40 -8 2 -43 10 -77 18 -34 8 -64 12 -67 9 -3 -3 -6 -1 -6 4 0 5 -8 10
-17 11 -31 1 -77 10 -118 21 -22 6 -56 14 -75 17 -19 3 -53 11 -75 17 -22 5
-50 12 -62 14 -13 2 -33 6 -45 8 -13 2 -41 9 -63 14 -36 10 -68 17 -130 28
-29 5 -60 12 -60 14 0 1 -18 4 -39 6 -21 3 -47 9 -57 15 -11 5 -19 8 -19 5 0
-2 -17 0 -37 5 -89 22 -127 21 -155 -3z"/>
<path d="M7460 5860 c0 -6 -4 -9 -8 -6 -9 6 -131 -21 -150 -32 -12 -8 -10 -30
11 -118 3 -12 8 -38 11 -59 4 -20 8 -40 10 -44 3 -3 7 -26 11 -51 4 -25 8 -47
10 -51 5 -7 34 -143 41 -190 5 -35 4 -36 -38 -52 -61 -22 -117 -36 -175 -42
l-51 -6 -8 33 c-10 45 -10 45 -29 113 -16 59 -41 166 -50 215 -14 74 -44 166
-58 174 -11 7 -64 -1 -184 -27 -92 -20 -184 -40 -203 -42 -19 -3 -53 -11 -75
-16 -22 -6 -49 -13 -60 -15 -28 -5 -53 -11 -105 -23 -25 -5 -57 -12 -73 -15
-15 -2 -35 -7 -45 -10 -9 -3 -29 -8 -44 -11 -43 -8 -115 -24 -133 -29 -11 -3
-69 -15 -100 -21 -11 -2 -20 -4 -20 -5 0 -1 -9 -3 -20 -5 -49 -10 -71 -14 -90
-19 -49 -11 -112 -25 -135 -30 -14 -2 -97 -21 -185 -40 -88 -20 -169 -38 -180
-41 -11 -2 -31 -7 -45 -10 -14 -3 -36 -7 -50 -10 -14 -3 -63 -14 -110 -25 -47
-11 -98 -22 -113 -24 -15 -2 -47 -8 -70 -14 -52 -14 -163 -39 -197 -46 -14 -3
-36 -8 -50 -11 -14 -3 -41 -8 -60 -11 -19 -3 -38 -8 -41 -10 -3 -2 -21 -6 -40
-9 -19 -3 -42 -8 -51 -11 -9 -3 -25 -7 -35 -9 -10 -2 -52 -11 -93 -20 -101
-22 -110 -24 -150 -31 -19 -4 -39 -9 -45 -12 -5 -3 -16 -7 -25 -8 -17 -2 -13
-1 -230 -49 -91 -20 -174 -38 -185 -40 -11 -3 -29 -7 -40 -9 -124 -29 -164
-38 -185 -42 -44 -9 -212 -45 -229 -50 -73 -17 -251 -57 -271 -60 -34 -5 -64
-12 -67 -14 -4 -3 -10 -5 -63 -15 -25 -5 -47 -9 -50 -10 -33 -10 -93 -23 -310
-71 -236 -52 -461 -102 -485 -108 -5 -1 -35 -8 -65 -15 -87 -19 -83 -8 -54
-151 3 -14 7 -34 8 -45 2 -11 6 -27 9 -35 3 -8 8 -28 10 -45 3 -16 17 -85 32
-153 30 -139 29 -145 -39 -163 -62 -17 -76 -19 -142 -26 l-61 -5 -16 53 c-16
53 -45 172 -53 213 -17 94 -59 262 -66 267 -32 21 -223 -37 -260 -78 -17 -18
-31 -78 -28 -118 2 -34 2 -38 -4 -130 -9 -132 -23 -201 -57 -294 -34 -91 -96
-211 -116 -224 -7 -4 -13 -12 -13 -18 0 -47 -309 -309 -364 -309 -9 0 -16 -4
-16 -8 0 -5 -20 -17 -45 -28 -25 -10 -45 -22 -45 -27 0 -4 -4 -6 -9 -3 -4 3
-27 -11 -50 -31 l-42 -36 6 -56 c6 -57 109 -582 125 -636 5 -16 11 -47 15 -69
3 -21 7 -41 9 -45 2 -3 7 -22 10 -41 7 -42 9 -50 35 -162 11 -47 23 -101 26
-119 3 -18 8 -35 10 -39 2 -4 7 -22 10 -41 10 -55 64 -281 75 -317 6 -18 13
-42 14 -55 8 -58 67 -259 80 -272 19 -19 65 -27 181 -31 133 -4 163 -8 280
-35 78 -19 275 -105 275 -121 0 -4 6 -8 13 -8 6 0 24 -10 39 -23 15 -12 40
-32 57 -45 29 -23 104 -97 138 -139 10 -12 25 -30 33 -40 21 -25 66 -101 120
-204 25 -47 56 -99 68 -115 23 -28 28 -29 95 -27 85 2 98 5 177 40 19 9 29 18
22 20 -6 3 -10 8 -8 12 3 4 -1 32 -8 62 -7 30 -21 92 -31 139 -9 47 -21 99
-26 115 -8 28 -13 62 -24 148 -5 37 0 42 57 53 13 2 34 6 48 10 37 8 91 16
125 18 26 1 31 -4 43 -39 8 -22 16 -49 18 -60 5 -26 13 -60 19 -85 8 -30 15
-62 20 -90 23 -122 47 -211 60 -224 12 -11 25 -12 80 -1 36 6 65 10 65 8 0 -2
9 1 19 7 11 5 35 12 53 14 18 3 65 12 103 20 39 9 81 18 95 21 14 2 63 13 110
24 136 30 283 62 305 65 11 2 27 6 35 9 16 6 126 29 150 32 9 0 20 4 25 7 6 3
30 9 55 13 25 3 59 10 75 15 17 5 44 11 60 14 17 2 30 5 30 6 0 2 10 4 60 14
17 3 62 13 100 21 39 9 81 19 95 21 14 3 62 14 108 24 46 11 96 22 110 25 52
9 74 14 94 21 11 3 30 7 41 9 12 1 52 10 88 18 37 9 78 18 90 21 32 5 258 55
289 63 14 3 29 5 34 4 4 -1 14 3 20 9 7 5 15 8 18 5 2 -3 20 0 39 5 19 6 50
13 69 16 19 3 62 12 95 21 33 8 71 17 85 19 14 3 77 16 140 30 63 14 122 27
130 29 18 4 298 65 323 71 30 7 105 23 135 29 13 2 33 7 44 11 11 3 30 7 41 9
12 1 52 10 90 19 37 8 82 18 100 21 17 3 41 9 52 12 11 4 27 7 35 9 8 1 59 11
114 24 54 12 107 23 118 25 11 2 27 6 36 9 9 3 31 8 47 11 17 2 39 7 50 10 27
6 195 44 220 50 11 2 31 6 45 9 14 3 41 9 60 13 46 9 50 10 53 13 3 2 18 6 77
18 25 5 117 26 205 47 88 20 167 38 175 40 8 2 36 8 61 15 55 14 54 0 14 195
-9 44 -18 89 -19 100 -1 11 -5 29 -9 40 -6 20 -9 34 -21 105 -19 112 -20 107
27 118 51 13 162 33 199 37 27 2 33 -9 54 -105 3 -14 9 -41 14 -60 16 -67 50
-215 55 -240 22 -110 26 -120 48 -115 12 3 52 12 90 20 140 32 169 64 174 195
4 123 15 242 27 288 3 12 8 30 10 40 7 28 45 125 62 155 8 15 13 27 10 27 -8
0 69 125 107 175 98 129 254 248 430 327 26 12 47 25 47 30 0 4 6 8 13 8 7 0
23 11 36 25 22 26 23 60 6 150 -30 149 -46 230 -50 253 -3 15 -7 38 -10 52 -3
14 -8 36 -11 50 -2 14 -7 36 -10 50 -3 14 -8 36 -10 50 -2 14 -7 36 -10 50 -3
14 -8 39 -11 55 -2 17 -9 48 -15 70 -6 22 -12 49 -13 60 -2 11 -6 31 -9 45 -3
14 -8 36 -11 50 -3 14 -8 35 -10 48 -3 12 -7 32 -10 45 -2 12 -8 36 -12 52 -3
17 -8 37 -9 45 -2 8 -8 38 -14 65 -6 28 -13 61 -16 75 -3 14 -7 32 -9 40 -2 8
-7 31 -10 50 -3 19 -10 49 -15 65 -8 26 -44 179 -54 231 -8 41 -19 82 -38 147
-27 95 -29 95 -303 112 -61 4 -120 11 -150 19 -5 2 -28 6 -49 11 -97 20 -239
91 -354 177 -130 97 -208 196 -319 404 -71 135 -71 135 -125 139 -27 2 -52 7
-58 10 -5 3 -10 1 -10 -5z m80 -1195 c9 -24 12 -35 26 -102 3 -16 10 -46 15
-68 5 -22 12 -51 14 -65 4 -25 5 -31 24 -110 10 -46 16 -77 26 -141 6 -36 5
-37 -37 -53 -24 -9 -54 -18 -68 -20 -14 -3 -36 -8 -50 -11 -49 -12 -109 -14
-115 -5 -6 10 -10 27 -21 80 -3 14 -9 41 -14 60 -5 19 -11 46 -14 60 -3 14
-15 70 -27 125 -23 107 -25 118 -35 181 l-6 40 83 18 c46 10 92 20 103 22 10
2 21 6 24 9 3 3 18 5 34 5 21 0 31 -6 38 -25z m-2842 -360 c10 -11 69 -85 132
-165 63 -80 116 -147 119 -150 4 -3 20 -23 36 -45 30 -41 52 -68 70 -89 6 -6
26 -31 45 -56 61 -79 56 -77 150 -74 77 1 173 7 360 19 167 11 212 15 220 20
5 3 11 1 15 -5 4 -6 12 -7 18 -3 13 8 147 15 147 8 0 -11 -47 -94 -77 -136
-18 -26 -33 -49 -33 -52 0 -4 -26 -46 -59 -94 -61 -91 -208 -316 -255 -391
l-26 -42 40 -98 c23 -53 43 -104 44 -112 2 -8 14 -38 26 -65 13 -28 26 -59 30
-70 5 -11 15 -36 23 -55 8 -19 27 -66 42 -105 15 -38 31 -79 35 -90 27 -67 44
-115 56 -153 l13 -43 -37 7 c-20 4 -51 13 -68 20 -17 7 -34 11 -37 8 -3 -3
-12 -2 -19 2 -7 5 -53 19 -103 32 -112 29 -109 28 -175 47 -30 9 -66 18 -80
21 -14 2 -50 11 -80 20 -75 21 -160 42 -202 50 -9 2 -24 -3 -32 -11 -8 -8 -19
-15 -24 -15 -6 0 -12 -4 -14 -8 -1 -5 -31 -29 -65 -54 -34 -25 -59 -48 -56
-52 4 -3 1 -6 -5 -6 -10 0 -33 -16 -76 -55 -6 -6 -81 -68 -166 -140 -85 -71
-168 -142 -185 -157 -32 -30 -51 -36 -52 -15 0 6 -4 39 -7 72 -12 100 -33 525
-36 710 l0 50 -63 39 c-34 22 -64 40 -67 41 -9 1 -65 39 -71 48 -3 5 -9 8 -13
7 -4 0 -30 15 -60 35 -29 19 -58 35 -65 35 -6 0 -11 5 -11 10 0 6 -7 10 -15
10 -8 0 -15 4 -15 9 0 5 -8 11 -17 14 -18 6 -67 34 -88 50 -5 5 -61 41 -124
82 l-115 73 50 22 c66 30 80 35 144 60 30 12 64 26 75 30 65 26 91 34 98 32 4
-1 7 2 7 6 0 5 6 9 13 9 14 1 304 108 327 122 9 5 30 12 48 16 18 3 32 8 32 9
0 2 12 50 26 107 14 57 28 112 30 122 2 9 6 25 8 35 2 9 16 64 31 122 14 58
28 113 30 123 2 10 7 27 10 37 3 10 7 27 9 37 2 10 11 45 20 78 9 33 19 68 21
77 2 9 9 26 15 37 6 12 8 21 4 21 -3 0 0 7 7 16 12 15 15 14 31 -7 10 -13 27
-33 36 -44z m3092 -777 c6 -18 13 -44 16 -58 2 -14 7 -36 11 -50 11 -44 14
-55 18 -75 2 -11 6 -33 10 -50 10 -52 15 -74 20 -102 3 -16 7 -38 10 -50 22
-99 16 -143 -20 -149 -5 -1 -30 -7 -55 -14 -61 -16 -77 -20 -131 -26 l-46 -5
-12 53 c-6 29 -13 60 -15 68 -4 14 -31 136 -42 185 -7 38 -24 120 -29 145 -3
14 -8 43 -11 66 l-6 40 101 25 c56 14 117 26 135 27 30 2 35 -1 46 -30z
m-5640 -62 c6 -19 13 -47 16 -62 3 -15 7 -31 9 -35 3 -4 7 -24 10 -45 3 -22
10 -51 16 -65 6 -14 9 -30 8 -35 -2 -8 6 -50 27 -144 15 -67 16 -122 3 -131
-19 -13 -107 -38 -149 -43 -19 -2 -39 -5 -45 -6 -41 -9 -55 1 -70 53 -9 28
-19 63 -21 77 -3 14 -9 41 -14 60 -5 19 -12 49 -15 65 -3 17 -7 42 -10 57 -3
15 -9 38 -15 52 -5 15 -8 26 -5 26 2 0 -1 15 -6 33 -5 17 -12 51 -15 73 -6 41
-6 42 38 58 51 19 148 41 194 44 29 2 34 -1 44 -32z m243 -1119 c8 -12 21 -50
28 -82 7 -33 13 -62 14 -65 1 -3 5 -25 10 -50 10 -52 9 -44 19 -95 5 -22 10
-47 11 -55 8 -48 18 -100 25 -132 10 -46 -3 -58 -80 -73 -3 -1 -31 -7 -62 -14
-32 -7 -72 -11 -89 -9 -30 3 -32 6 -50 73 -10 39 -20 81 -23 95 -3 14 -10 45
-16 70 -7 25 -13 53 -15 63 -2 10 -6 26 -9 35 -3 9 -7 34 -11 56 -3 21 -7 42
-10 46 -2 4 -7 30 -11 58 l-6 50 104 25 c131 33 152 33 171 4z"/>
</g>
</svg>
