<?xml version="1.0" encoding="UTF-8"?>
<svg id="Layer_2" data-name="Layer 2" xmlns="http://www.w3.org/2000/svg" viewBox="0 0 460 399">
  <defs>
    <style>
      .cls-1 {
        fill: #222;
        stroke-width: 0px;
      }
    </style>
  </defs>
  <g id="Layer_1-2" data-name="Layer 1">
    <g>
      <path class="cls-1" d="m81.1,1.63c-.86.96-2.88,4.7-4.61,8.35-4.32,9.31-13.53,18.42-23.03,22.93-8.64,4.03-14.97,5.47-24.37,5.47-5.56,0-7.29.38-8.54,1.73C18.26,42.6-.84,128.09.03,131.73c.58,2.01,2.01,3.17,7.1,5.47,18.52,8.44,29.45,24.37,30.61,44.9.77,13.43.48,12.95,11.23,15.45l4.7,1.15,3.55-3.74c1.92-2.01,4.8-4.13,6.43-4.8,1.54-.67,26.29-6.33,54.98-12.66,28.78-6.33,52.58-11.8,52.96-12.18.48-.48,2.97-6.04,5.66-12.47l4.8-11.8-11.61-17.75c-6.33-9.88-11.42-18.04-11.32-18.13.19-.19,9.69.38,21.01,1.34,13.53,1.06,21.01,1.25,21.88.67.67-.48,6.91-8.06,13.82-16.79,10.36-12.95,12.76-15.45,13.34-14.01.38,1.06,2.78,10.46,5.37,20.92l4.61,19.19,19.57,7.39c10.75,4.13,19.67,7.68,19.96,7.87.19.29-4.7,3.65-10.94,7.39-13.62,8.44-14.01,8.73-9.31,7.68,2.11-.48,18.9-4.13,37.32-8.16,86.16-18.81,81.26-17.94,87.6-15.26,5.37,2.21,8.64,5.85,12.66,14.39,5.66,11.8,15.73,19.96,27.06,21.88,2.88.48,3.55.29,3.93-1.06.29-.96,1.73-6.81,3.07-13.05,3.26-14.2,3.07-14.68-6.91-19.57-18.23-8.83-29.07-26.38-29.07-46.92,0-6.43-.29-8.06-1.82-9.4-1.06-.96-6.52-2.78-12.28-4.03-5.66-1.34-45.96-10.36-89.52-20.05-43.56-9.69-107.17-23.99-141.42-31.66C114.78,6.24,85.8,0,84.65,0s-2.78.77-3.55,1.63Z"/>
      <path class="cls-1" d="m368.17,137.39c-1.82.48-3.45,1.06-3.65,1.15-.1.19,1.06,6.04,2.69,13.05,1.54,6.91,2.88,13.24,2.88,13.91,0,1.06-10.46,3.84-13.14,3.45-.48,0-2.11-6.24-3.74-13.72-2.21-10.07-3.36-13.62-4.32-13.53-3.93.67-253.39,55.74-253.68,56.13-.19.19.86,5.95,2.4,12.76,1.54,6.91,2.88,13.14,2.88,14.01,0,1.06-1.73,1.82-6.33,2.69-3.55.77-6.62.96-7.1.48-.38-.48-1.92-6.24-3.26-12.86-1.44-6.62-2.78-12.47-2.97-13.14-.48-1.54-10.46.86-12.95,3.07-1.63,1.44-1.92,2.97-1.92,10.07,0,20.15-10.75,37.13-29.17,46.05-6.04,2.97-8.44,4.61-8.83,6.24-.77,3.07,18.42,89.61,20.44,91.82,1.25,1.44,3.07,1.73,9.31,1.73,20.63,0,38.28,11.03,47.11,29.55,2.88,5.95,4.41,8.06,6.14,8.54,2.97.77,12.57-1.44,12.57-2.88,0-.67-1.25-6.52-2.78-13.14s-2.49-12.28-2.11-12.57c.96-.96,12.57-3.07,13.14-2.49.38.29,1.63,5.47,2.97,11.42,2.88,13.82,3.07,14.2,4.61,14.2.77,0,28.69-6.04,62.08-13.43,33.39-7.39,90-19.76,125.78-27.63,35.69-7.87,65.24-14.58,65.53-14.87s-.77-6.24-2.3-13.34c-1.63-7-2.59-13.05-2.3-13.34.96-.86,12.76-2.97,13.34-2.49.29.38,6.04,25.14,6.04,26.19,0,.1,2.4-.38,5.37-1.15,7.96-1.82,9.02-3.17,9.02-11.51,0-9.5,1.44-15.83,5.56-24.27,4.8-9.98,13.14-18.04,23.79-23.22,6.33-3.07,8.16-4.41,8.73-6.43.58-2.4-17.08-85.39-19.19-90.19-1.15-2.59-2.3-2.88-13.62-3.36-10.55-.58-17.85-2.97-26.58-8.92-7.87-5.37-12.28-10.65-17.46-20.82-3.93-7.77-3.93-7.87-7.77-8.06-2.11-.1-5.37.29-7.2.86Zm9.11,59.49c1.82,7.68,5.28,24.27,5.28,25.23,0,1.06-13.14,4.13-13.82,3.26-.38-.58-6.14-27.25-5.95-27.44.19-.29,11.51-2.78,13.24-3.07.38-.1.96.86,1.25,2.01Zm-131.92,30.51c6.52,8.16,12.09,15.26,12.57,15.73.38.38,9.98.1,21.49-.77,11.51-.96,21.01-1.44,21.3-1.25.19.29-4.8,8.44-11.23,18.13l-11.51,17.75,8.06,19.76c4.41,10.94,7.77,19.86,7.39,19.86s-9.4-2.4-19.96-5.28c-10.65-2.88-19.86-5.28-20.53-5.28-.77.1-8.44,6.14-17.17,13.53l-15.83,13.43-.67-4.61c-.38-2.49-.96-12.18-1.25-21.4l-.67-16.79-17.65-10.94c-9.69-5.95-17.85-11.13-18.13-11.61-.19-.38,8.54-4.03,19.57-8.06l19.86-7.48,5.18-21.01c4.03-16.31,5.37-20.82,6.24-19.86.67.67,6.43,7.96,12.95,16.12Zm144.4,26.1c4.03,17.75,5.28,25.04,4.61,25.71-.86.77-12.66,3.36-13.05,2.78-.58-.67-6.24-27.25-5.95-27.54.48-.48,10.17-2.88,12.18-2.97,1.06-.1,1.92.77,2.21,2.01Zm-282.08,2.88c3.26,13.91,5.28,24.27,4.89,25.23-.48,1.44-12.09,3.84-13.05,2.69-.38-.38-1.92-6.14-3.26-12.76-1.44-6.62-2.78-12.47-2.97-13.14s1.82-1.63,5.56-2.59c8.06-1.82,8.25-1.82,8.83.58Zm12.38,56.13c1.73,6.14,5.47,25.43,5.09,25.91-.96.96-12.38,3.26-13.05,2.69-.67-.67-6.62-26.67-6.24-27.25.38-.48,9.98-2.78,12.09-2.88.86-.1,1.82.67,2.11,1.54Z"/>
    </g>
  </g>
</svg>